<svg viewBox="0 0 1024 1024" version="1.1" xmlns="http://www.w3.org/2000/svg" xmlns:xlink="http://www.w3.org/1999/xlink" width="32" height="32"><path fill="#666" d="M861.866667 857.6L145.066667 179.2c-12.8-8.533333-17.066667-29.866667-4.266667-42.666667 12.8-12.8 29.866667-12.8 42.666667 0L904.533333 810.666667c12.8 12.8 12.8 29.866667 0 42.666666-4.266667 4.266667-12.8 8.533333-21.333333 8.533334-8.533333 4.266667-17.066667 0-21.333333-4.266667zM46.933333 541.866667c0-4.266667-4.266667-8.533333-4.266666-12.8v-21.333334c0-4.266667 4.266667-25.6 4.266666-25.6 34.133333-72.533333 85.333333-136.533333 145.066667-187.733333L256 354.133333c-51.2 42.666667-93.866667 98.133333-128 157.866667 68.266667 149.333333 217.6 251.733333 384 256 42.666667 0 81.066667-8.533333 119.466667-21.333333 4.266667 0 8.533333-4.266667 8.533333-4.266667l64 64c-17.066667 8.533333-29.866667 12.8-46.933333 21.333333-42.666667 17.066667-93.866667 25.6-145.066667 25.6-200.533333-8.533333-379.733333-128-465.066667-311.466666z m806.4 170.666666l-59.733333-59.733333c25.6-25.6 46.933333-51.2 68.266667-81.066667v-8.533333c12.8-17.066667 21.333333-34.133333 34.133333-55.466667-38.4-76.8-93.866667-140.8-162.133333-183.466666C669.866667 281.6 593.066667 256 512 256c-34.133333 0-68.266667 4.266667-98.133333 12.8L345.6 200.533333C396.8 183.466667 456.533333 170.666667 512 170.666667c200.533333 8.533333 379.733333 128 465.066667 311.466666v4.266667c0 4.266667 0 8.533333 4.266666 12.8v25.6c0 4.266667 0 8.533333-4.266666 8.533333 0 4.266667 0 4.266667-4.266667 8.533334-12.8 25.6-25.6 51.2-42.666667 72.533333-21.333333 38.4-46.933333 68.266667-76.8 98.133333zM341.333333 512c0-21.333333 4.266667-42.666667 12.8-59.733333l76.8 76.8c8.533333 34.133333 34.133333 64 68.266667 68.266666l76.8 76.8c-21.333333 4.266667-42.666667 8.533333-64 8.533334-93.866667 0-170.666667-76.8-170.666667-170.666667z m341.333334 25.6L486.4 341.333333h25.6c93.866667 0 170.666667 76.8 170.666667 170.666667v25.6z"></path></svg>