<?xml version="1.0" encoding="utf-8"?>
<!-- Generator: Adobe Illustrator 24.1.0, SVG Export Plug-In . SVG Version: 6.00 Build 0)  -->
<svg version="1.1" id="图层_1" xmlns="http://www.w3.org/2000/svg" xmlns:xlink="http://www.w3.org/1999/xlink" x="0px" y="0px"
	 viewBox="0 0 2538 1024" style="enable-background:new 0 0 2538 1024;" xml:space="preserve">
<style type="text/css">
	.st0{fill:#EBF7FF;}
	.st1{display:none;fill:#CFF0FF;}
	.st2{fill:#396B99;}
	.st3{fill:#F9DA3E;}
	.st4{fill:#FFFFFF;}
	.st5{fill:#568EC8;}
	.st6{fill:#78C5FD;}
	.st7{fill:#0E1D80;fill-opacity:0.1;}
	.st8{fill:#CFF0FF;}
	.st9{fill:#FFE4A8;}
	.st10{fill:#F49130;}
	.st11{fill:#1B5A89;}
	.st12{fill:#FFDB73;}
</style>
<path class="st0" d="M127.8,723.8h2085.9c35.1,0,63.8-29.5,63.8-65.2c0-36.5-28.8-65.2-63.8-65.2H127.8c-35.1,0-63.8,29.5-63.8,65.2
	C64,695.1,92.8,723.8,127.8,723.8z M454,953.9h301.6c20.3,0,37.2-16.8,37.2-37.9s-16.8-37.9-37.2-37.9H454
	c-20.3,0-37.2,16.8-37.2,37.9C417.5,937,433.6,953.9,454,953.9L454,953.9z M2325.2,650.9h247.6c16.8,0,30.2-14,30.2-31.6
	s-13.3-31.6-30.2-31.6h-247.6c-16.8,0-30.2,14-30.2,31.6S2308.4,650.9,2325.2,650.9z"/>
<path class="st0" d="M210.6,848.7h2186.2c36.5,0,65.2-29.5,65.2-65.2c0-36.5-29.5-65.2-65.2-65.2H210.6c-36.5,0-65.2,29.5-65.2,65.2
	C144.7,819.2,174.1,848.7,210.6,848.7z"/>
<path class="st1" d="M1040.6,335.3h-16.1V152.2c0-37.9,1.4-60.3,4.2-93.3H912.9c-14.7,21.7-25.2,35.8-52.6,67.3l-122,142.4
	c-28.8,33.7-28.8,33.7-54,61.7v101c21-1.4,36.5-2.1,73.6-2.1h159.9v27.4c0,27.4-1.4,51.2-4.2,70.1h116.4
	c-3.5-21.7-4.2-37.9-4.2-69.4v-28.1h16.8c17.5,0,38.6,1.4,55.4,3.5V330.3C1077.1,333.2,1058.1,335.3,1040.6,335.3z M917.9,270.7V336
	H803.5l82.1-100.3c15.4-18.9,23.8-30.2,35.1-46.3C918.6,214.6,917.9,245.5,917.9,270.7L917.9,270.7z M1504.9,163.4
	c-8.4-22.4-22.4-44.2-41.4-62.4c-34.4-33.7-82.1-52.6-137.5-52.6c-70.8,0-129.8,31.6-164.1,89.1c-21.7,35.8-35.8,96.8-35.8,155.7
	c0,45.6,7,89.1,21.7,129.1c8.4,22.4,22.4,44.2,41.4,62.4c34.4,34.4,81.4,52.6,136.8,52.6c71.5,0,131.2-31.6,164.8-87.7
	c21.7-35.8,35.8-97.5,35.8-156.4C1527.3,246.9,1519.6,203.4,1504.9,163.4L1504.9,163.4z M1327.5,441.9c-56.1,0-84.9-51.9-84.9-152.9
	c0-91.9,30.9-145.2,84.2-145.2c54.7,0,84.2,50.5,84.2,147.3C1410.9,390.7,1382.9,441.9,1327.5,441.9L1327.5,441.9z M1913.1,335.3
	H1897V152.2c0-37.9,1.4-60.3,4.2-93.3h-115.7c-14.7,21.7-25.2,35.8-52.6,67.3l-122.7,143.1c-28.8,33.7-28.8,33.7-54,61.7v101
	c21-1.4,36.5-2.1,73.6-2.1h159.9v27.4c0,27.4-1.4,51.2-4.2,70.1h116.4c-3.5-21.7-4.2-37.9-4.2-69.4v-28.1h16.8
	c17.5,0,38.6,1.4,55.4,3.5V330.3C1949.6,333.2,1930.6,335.3,1913.1,335.3z M1790.4,270.7V336H1676l82.1-100.3
	c15.4-18.9,23.8-30.2,35.1-46.3C1791.1,214.6,1790.4,245.5,1790.4,270.7L1790.4,270.7z M2298.2,538l-257.4-0.7V280.5
	C2183.1,280.5,2298.2,395.6,2298.2,538z M234.7,538c0-206.9,167.6-374.5,375.2-374.5v373.1L234.7,538L234.7,538z"/>
<path class="st2" d="M952.5,740.6c42.1-8.4,73.6-26,71.5-40c-2.8-14-39.3-18.9-81.4-10.5s-73.6,26-71.5,40 M1047.1,587.7
	c42.1-8.4,73.6-26,71.5-40c-2.8-14-39.3-18.9-81.4-10.5c-42.1,8.4-73.6,26-71.5,40 M1724,795.4c24.5-9.1,40.7-21,38.6-31.6
	c-2.8-14-39.3-18.9-81.4-10.5s-73.6,26-71.5,40 M2003.8,743.5c24.5-9.1,40.7-21,38.6-31.6c-2.8-14-39.3-18.9-81.4-10.5
	s-73.6,26-71.5,40 M2013.6,665.6c42.1-8.4,73.6-26,71.5-40c-2.8-14-39.3-18.9-81.4-10.5s-73.6,26-71.5,40"/>
<path class="st3" d="M1069.6,590.6c0-88.4-71.5-159.9-159.9-159.9s-159.9,71.5-159.9,159.9"/>
<path class="st4" d="M573,318.4l204.8,204.8l-31.6,31.6L541.5,350L573,318.4L573,318.4z M511.3,377.3l204.8,204.8l-31.6,31.6
	L479.7,408.9L511.3,377.3L511.3,377.3z M448.2,438.4L653,643.2l-31.6,31.6L416.6,469.9L448.2,438.4L448.2,438.4z M387.2,499.4
	L592,704.2l-31.6,31.6L355.6,530.9L387.2,499.4L387.2,499.4z M335.3,570.2L540.1,775l-31.6,31.6L303.7,601.8L335.3,570.2
	L335.3,570.2z"/>
<path class="st5" d="M2054.9,665.6c0-129.8-105.2-235-235-235s-235,105.2-235,235"/>
<path class="st2" d="M1102.6,616.5c0-28.8-23.8-51.9-52.6-51.9c-29.5,0-52.6,23.1-52.6,51.9 M1507.2,578.6c0-37.9-30.9-68-69.4-68
	s-69.4,30.9-69.4,68"/>
<path class="st6" d="M1643.3,741.3c0-82.8-68.7-150.8-152.9-150.8s-152.9,67.3-152.9,150.8"/>
<path class="st2" d="M1723.3,795.4c0-44.2-35.8-80-80-80s-80,35.8-80,80"/>
<path class="st7" d="M651.6,791.1l-152.2,0.7c0-124.1,100.3-184.5,224.4-184.5v138.9"/>
<path class="st6" d="M449.2,791.8c0-124.1,100.3-224.4,224.4-224.4v223.7"/>
<path class="st3" d="M1997.5,744.9c0-80-64.5-144.5-144.5-144.5v143.8"/>
<path class="st8" d="M1798.3,627.7c0,6.3,4.2,11.2,9.1,11.2s9.1-4.9,9.1-11.2s-4.2-11.2-9.1-11.2S1798.3,621.4,1798.3,627.7z
	 M1763.2,627.7c0,6.3,4.2,11.2,9.1,11.2s9.1-4.9,9.1-11.2s-4.2-11.2-9.1-11.2S1763.2,621.4,1763.2,627.7z M1728.2,627.7
	c0,6.3,4.2,11.2,9.1,11.2s9.1-4.9,9.1-11.2s-4.2-11.2-9.1-11.2S1728.2,621.4,1728.2,627.7z M1690.3,627.7c0,6.3,4.2,11.2,9.1,11.2
	s9.1-4.9,9.1-11.2s-4.2-11.2-9.1-11.2S1690.3,621.4,1690.3,627.7z M1655.2,627.7c0,6.3,4.2,11.2,9.1,11.2s9.1-4.9,9.1-11.2
	s-4.2-11.2-9.1-11.2S1655.2,621.4,1655.2,627.7z M1798.3,594.8c0,6.3,4.2,11.2,9.1,11.2s9.1-4.9,9.1-11.2s-4.2-11.2-9.1-11.2
	S1798.3,588.4,1798.3,594.8z M1763.2,594.8c0,6.3,4.2,11.2,9.1,11.2s9.1-4.9,9.1-11.2s-4.2-11.2-9.1-11.2S1763.2,588.4,1763.2,594.8
	z M1728.2,594.8c0,6.3,4.2,11.2,9.1,11.2s9.1-4.9,9.1-11.2s-4.2-11.2-9.1-11.2S1728.2,588.4,1728.2,594.8z M1690.3,594.8
	c0,6.3,4.2,11.2,9.1,11.2s9.1-4.9,9.1-11.2s-4.2-11.2-9.1-11.2S1690.3,588.4,1690.3,594.8z M1798.3,559.7c0,6.3,4.2,11.2,9.1,11.2
	s9.1-4.9,9.1-11.2s-4.2-11.2-9.1-11.2S1798.3,553.4,1798.3,559.7z M1763.2,559.7c0,6.3,4.2,11.2,9.1,11.2s9.1-4.9,9.1-11.2
	s-4.2-11.2-9.1-11.2S1763.2,553.4,1763.2,559.7z M1728.2,559.7c0,6.3,4.2,11.2,9.1,11.2s9.1-4.9,9.1-11.2s-4.2-11.2-9.1-11.2
	S1728.2,553.4,1728.2,559.7z M1798.3,523.9c0,6.3,4.2,11.2,9.1,11.2s9.1-4.9,9.1-11.2s-4.2-11.2-9.1-11.2S1798.3,518.3,1798.3,523.9
	z M1763.2,523.9c0,6.3,4.2,11.2,9.1,11.2s9.1-4.9,9.1-11.2s-4.2-11.2-9.1-11.2C1767.5,513.4,1763.2,518.3,1763.2,523.9z
	 M1798.3,488.9c0,6.3,4.9,11.2,11.2,11.2s11.2-4.9,11.2-11.2s-4.9-11.2-11.2-11.2S1798.3,482.5,1798.3,488.9z"/>
<path class="st2" d="M1077.3,851.5c0,18.9,65.2,34.4,145.9,34.4s145.9-15.4,145.9-34.4s-65.2-34.4-145.9-34.4
	S1077.3,832.5,1077.3,851.5z"/>
<path class="st2" d="M1173.4,723.8c11.2,24.5,0.7,132.6-2.8,132.6l-6.3,0.7l-4.2-52.6c0,0-12.6-68.7-13.3-74.3l18.2-11.2
	L1173.4,723.8L1173.4,723.8z"/>
<path class="st2" d="M1139,718.2l12.6,11.2c4.9,0.7-13.3,120.6-21,125.5l-6.3-0.7V794c0-11.9-6.3-51.9-2.8-71.5"/>
<path class="st9" d="M1136.2,640.4l17.5,4.9l-0.7-10.5l-13.3-10.5C1139.7,629.8,1136.2,640.4,1136.2,640.4z"/>
<path class="st9" d="M1153.8,635.4c0,0-7.7-4.9-9.8-7.7c-5.6-4.9,8.4-23.1,13.3-23.1l11.9,5.6l2.8,7l-2.1,11.2l-3.5-0.7l-5.6,9.1
	L1153.8,635.4z"/>
<path class="st2" d="M1172,615.8c-3.5,0-14.7-4.9-14.7-7c0.7,2.1-3.5,10.5-7,10.5s-10.5-9.1-11.2-3.5c0.7,1.4,3.5,15.4,0,14
	c-14-3.5-8.4-39.3,18.2-35.8C1193.7,604.6,1175.5,615.8,1172,615.8L1172,615.8z"/>
<path class="st9" d="M1139,622.8c-2.8-3.5,0-10.5,3.5-10.5c2.1,0,4.9,1.4,5.6,3.5C1150.9,628.4,1143.9,631.2,1139,622.8L1139,622.8z
	"/>
<path class="st6" d="M1162.9,638.9c4.2,1.4,9.1,9.8,9.1,14c0.7,4.9-0.7,19.6-0.7,19.6l18.9-6.3l-0.7,6.3c0,0-13.3,9.8-18.9,11.9
	c-2.1,0.7-5.6,0-7-0.7c-7.7-4.2-15.4-19.6-14-30.9C1149.5,652.3,1147.4,635.4,1162.9,638.9z"/>
<path class="st5" d="M1119.4,739.2c10.5,7,49.8,7,56.8-0.7c4.9-17.5-5.6-89.1-12.6-95.4c0-1.4-9.1-5.6-9.1-5.6s-14.7-5.6-19.6-2.8
	C1127.1,643.9,1111.7,721.7,1119.4,739.2z"/>
<path class="st2" d="M1109.6,636.8c-0.7,3.5,1.4,4.2,4.2,5.6c7.7,3.5,1.4,21-11.9,35.1c-16.1,16.8,5.6,47.7,23.8,33.7
	c5.6-4.2,4.2-16.8,4.2-16.8V646l3.5-2.1l7.7,4.2c-4.9,11.9-4.9,21.7,0,24.5c2.1,1.4,3.5,1.4,5.6,0c0.7-2.8,4.2-14.7,1.4-28.8
	C1143.2,632.6,1111,626.3,1109.6,636.8z"/>
<path class="st6" d="M1131.3,641.8c-19.6,14.7-9.1,58.2-3.5,59.6c11.2,2.1,37.2-12.6,37.2-12.6l-0.7-5.6l-26.7-0.7
	c0,0,8.4-31.6,2.8-38.6C1139,642.5,1136.2,641.8,1131.3,641.8L1131.3,641.8z"/>
<path class="st2" d="M1165.7,667c1.4,2.1,4.2,2.1,4.9,0c0.7,0-1.4-27.4-7.7-29.5c-2.8-2.1-7,0.7-4.9,2.1
	C1164.3,641.1,1166.4,668.4,1165.7,667L1165.7,667z"/>
<path class="st9" d="M1190.9,657.9l-21.7-3.5l-3.5,39.3l21.7,3.5l11.2-3.5l7-42.8L1190.9,657.9z"/>
<path class="st10" d="M1192.3,657.9l2.1,0.7l-7,39.3l-2.1-0.7L1192.3,657.9z"/>
<path class="st9" d="M1172.7,682.4c1.4,2.1,0.7,4.2-1.4,5.6c-1.4,1.4-7,1.4-7.7,0.7c-1.4-1.4-2.8-3.5-2.1-5.6
	C1162.2,680.3,1170.6,678.9,1172.7,682.4z"/>
<path class="st10" d="M1143.9,862c1.4-2.1-7.7-7.7-12.6-9.8l-8.4-0.7c-0.7,2.8-4.9,6.3-3.5,8.4C1121.5,862,1141.8,864.1,1143.9,862
	L1143.9,862z M1186,859.9c1.4-2.1-8.4-5.6-13.3-7l-8.4-0.7c-0.7,2.1-4.9,4.9-2.8,7C1163.6,861.3,1184.6,862,1186,859.9L1186,859.9z
	 M1327.7,859.9c-3.5,2.8-25.2,1.4-26.7,0c-1.4-1.4,1.4-9.8,1.4-9.8h11.2C1313.7,849.4,1331.2,856.4,1327.7,859.9L1327.7,859.9z
	 M1219,852.9c3.5,0-1.4-18.9-1.4-18.9l-7-6.3c0,0-8.4,2.8-8.4,5.6C1201.4,836,1215.5,852.9,1219,852.9L1219,852.9z"/>
<path class="st2" d="M1279.3,732.9l23.8-2.8c7.7,18.2,11.9,40,13.3,62.4l-3.5,58.9l-10.5,2.8l-4.2-54.7
	C1298.9,800.3,1278.6,760.3,1279.3,732.9z"/>
<path class="st2" d="M1247.7,730.1V789l-38.6,40l6.3,9.8c0,0,47-33,56.8-46.3c4.2-5.6,14-61.7,14-61.7h-38.6V730.1z"/>
<path class="st9" d="M1290.5,630.5l4.9-2.8c0,0,8.4,7.7,7.7,9.1s-4.9,4.2-7,0.7C1294,634.7,1290.5,630.5,1290.5,630.5z"/>
<path class="st6" d="M1295.4,637.5l8.4-1.4c0,0,8.4,12.6,7,16.8c-1.4,4.2-16.1,15.4-16.1,15.4l-8.4-11.9l12.6-8.4L1295.4,637.5z"/>
<path class="st9" d="M1263.9,645.3l18.9,4.9l-1.4-11.9l-16.1-9.8L1263.9,645.3L1263.9,645.3z"/>
<path class="st2" d="M1293.3,675.4c1.4,2.1,4.2,2.1,4.9,0c0.7,0-1.4-26.7-7.7-29.5c-2.8-2.1-7,0.7-4.9,2.1
	C1291.9,649.5,1294.7,676.1,1293.3,675.4z"/>
<path class="st5" d="M1264.6,643.9c4.2-1.4,21,2.1,23.1,4.2c2.1,2.1,9.8,21,11.9,28.8c5.6,17.5,16.8,65.9,12.6,70.8
	c-4.2,5.6-58.2,7-65.9,2.8c-6.3-3.5-2.1-61,2.8-80.7C1251.9,662.1,1259.7,645.3,1264.6,643.9L1264.6,643.9z"/>
<path class="st11" d="M1218.3,799.6c-0.7-0.7-0.7-1.4,0-2.1L1320,692.3c0.7-0.7,1.4-0.7,2.1,0s0.7,1.4,0,2.1l-101.7,105.2H1218.3z"
	/>
<path class="st9" d="M1279.3,704.9h23.8l0.7,6.3l-24.5,3.5V704.9z"/>
<path class="st2" d="M1237.9,648.1c-0.7,3.5,1.4,4.9,4.9,6.3c9.1,3.5,2.1,23.8-12.6,38.6c-17.5,18.9,7.7,52.6,27.4,37.2
	c6.3-4.9,4.2-18.2,4.2-18.2l-1.4-53.3l3.5-2.8l9.1,4.2c-4.9,13.3-4.9,23.8,0.7,27.4c2.1,1.4,3.5,1.4,5.6,0
	c1.4-3.5,4.2-16.1,1.4-31.6C1275.1,641.8,1239.3,636.1,1237.9,648.1L1237.9,648.1z"/>
<path class="st6" d="M1261.8,652.3c-6.3,5.6-9.1,16.1-11.2,27.4c-2.8,31.6,7,40.7,11.2,40.7s22.4-2.8,22.4-2.8l-0.7-12.6l-16.1-0.7
	c0,0,8.4-21.7,7-40C1274.4,659.3,1270.2,648.8,1261.8,652.3L1261.8,652.3z"/>
<path class="st9" d="M1310.9,701.4c2.1,0.7,2.1,3.5,2.1,3.5c-0.7,2.1-4.2,7.7-6.3,7.7s-7.7-2.1-4.9-5.6
	C1303.8,702.8,1308.8,700.7,1310.9,701.4z M1286.3,642.5l5.6-9.1l4.2-0.7l-1.4-18.2l-13.3-9.1l-16.1,9.1l-0.7,18.9
	C1270.9,641.1,1286.3,642.5,1286.3,642.5L1286.3,642.5z"/>
<path class="st2" d="M1274.4,596.9c7.7-1.4,16.1-0.7,20.3,3.5s6.3,11.9,0,16.1c-7,0.7-7.7,2.8-14.7-0.7c0,0-0.7,3.5-2.8,6.3
	c-2.1,3.5-8.4,1.4-8.4,1.4s0,9.8-7,9.8C1249.1,631.9,1252.6,602.5,1274.4,596.9L1274.4,596.9z"/>
<path class="st12" d="M1275.1,625.6c0-2.1,0-4.9-2.1-5.6c-2.8-2.1-5.6,0-5.6,2.8c-0.7,2.8,1.4,5.6,3.5,6.3
	C1273,630.5,1275.1,628.4,1275.1,625.6z"/>
</svg>
